<svg width="154" height="188" viewBox="0 0 154 188" fill="none" xmlns="http://www.w3.org/2000/svg">
<path d="M38.5122 150.952L38.296 150.75H38H0.75V0.75H153.25V150.75H113H112.692L112.473 150.966L76.4861 186.46L38.5122 150.952Z" fill="white" stroke="#414141" stroke-width="1.5"/>
<path d="M42.6001 64.9091V94H36.4496V70.7472H36.2791L29.6172 74.9233V69.4688L36.8189 64.9091H42.6001ZM60.0398 64.5114C61.536 64.5114 62.9754 64.7623 64.358 65.2642C65.75 65.7661 66.9905 66.5663 68.0795 67.6648C69.178 68.7633 70.0445 70.2216 70.679 72.0398C71.3229 73.8485 71.6496 76.0691 71.6591 78.7017C71.6591 81.1733 71.3797 83.3797 70.821 85.321C70.2718 87.2528 69.4811 88.8958 68.4489 90.25C67.4167 91.6042 66.1714 92.6364 64.7131 93.3466C63.2547 94.0473 61.6259 94.3977 59.8267 94.3977C57.8854 94.3977 56.1714 94.0237 54.6847 93.2756C53.1979 92.518 52 91.4905 51.0909 90.1932C50.1913 88.8864 49.6468 87.4186 49.4574 85.7898H55.5227C55.7595 86.8504 56.2566 87.6742 57.0142 88.2614C57.7718 88.839 58.7093 89.1278 59.8267 89.1278C61.7206 89.1278 63.16 88.304 64.1449 86.6562C65.1297 84.9991 65.6269 82.7311 65.6364 79.8523H65.4375C65.0019 80.7045 64.4148 81.4384 63.6761 82.054C62.9375 82.66 62.09 83.1288 61.1335 83.4602C60.1866 83.7917 59.178 83.9574 58.108 83.9574C56.3939 83.9574 54.8646 83.5549 53.5199 82.75C52.1752 81.9451 51.1146 80.8371 50.3381 79.4261C49.5616 78.0152 49.1733 76.4053 49.1733 74.5966C49.1638 72.6458 49.6136 70.9081 50.5227 69.3835C51.4318 67.8589 52.7008 66.6657 54.3295 65.804C55.9678 64.9328 57.8712 64.5019 60.0398 64.5114ZM60.0824 69.3409C59.1259 69.3409 58.2737 69.5682 57.5256 70.0227C56.7869 70.4773 56.1998 71.0881 55.7642 71.8551C55.3381 72.6222 55.1297 73.4792 55.1392 74.4261C55.1392 75.3826 55.3475 76.2443 55.7642 77.0114C56.1903 77.7689 56.768 78.375 57.4972 78.8295C58.2358 79.2746 59.0786 79.4972 60.0256 79.4972C60.7358 79.4972 61.3939 79.3646 62 79.0994C62.6061 78.8343 63.1316 78.4697 63.5767 78.0057C64.0313 77.5322 64.3864 76.9877 64.642 76.3722C64.8977 75.7566 65.0256 75.1032 65.0256 74.4119C65.0161 73.4934 64.7983 72.6506 64.3722 71.8835C63.946 71.1165 63.3589 70.5009 62.6108 70.0369C61.8627 69.5729 61.0199 69.3409 60.0824 69.3409ZM86.446 64.5114C87.9422 64.5114 89.3816 64.7623 90.7642 65.2642C92.1563 65.7661 93.3968 66.5663 94.4858 67.6648C95.5843 68.7633 96.4508 70.2216 97.0852 72.0398C97.7292 73.8485 98.0559 76.0691 98.0653 78.7017C98.0653 81.1733 97.786 83.3797 97.2273 85.321C96.678 87.2528 95.8873 88.8958 94.8551 90.25C93.8229 91.6042 92.5777 92.6364 91.1193 93.3466C89.661 94.0473 88.0322 94.3977 86.233 94.3977C84.2917 94.3977 82.5777 94.0237 81.0909 93.2756C79.6042 92.518 78.4063 91.4905 77.4972 90.1932C76.5975 88.8864 76.053 87.4186 75.8636 85.7898H81.929C82.1657 86.8504 82.6629 87.6742 83.4205 88.2614C84.178 88.839 85.1155 89.1278 86.233 89.1278C88.1269 89.1278 89.5663 88.304 90.5511 86.6562C91.536 84.9991 92.0331 82.7311 92.0426 79.8523H91.8438C91.4081 80.7045 90.821 81.4384 90.0824 82.054C89.3438 82.66 88.4962 83.1288 87.5398 83.4602C86.5928 83.7917 85.5843 83.9574 84.5142 83.9574C82.8002 83.9574 81.2708 83.5549 79.9261 82.75C78.5814 81.9451 77.5208 80.8371 76.7443 79.4261C75.9678 78.0152 75.5795 76.4053 75.5795 74.5966C75.5701 72.6458 76.0199 70.9081 76.929 69.3835C77.8381 67.8589 79.107 66.6657 80.7358 65.804C82.3741 64.9328 84.2775 64.5019 86.446 64.5114ZM86.4886 69.3409C85.5322 69.3409 84.6799 69.5682 83.9318 70.0227C83.1932 70.4773 82.6061 71.0881 82.1705 71.8551C81.7443 72.6222 81.536 73.4792 81.5455 74.4261C81.5455 75.3826 81.7538 76.2443 82.1705 77.0114C82.5966 77.7689 83.1742 78.375 83.9034 78.8295C84.642 79.2746 85.4848 79.4972 86.4318 79.4972C87.142 79.4972 87.8002 79.3646 88.4062 79.0994C89.0123 78.8343 89.5379 78.4697 89.983 78.0057C90.4375 77.5322 90.7926 76.9877 91.0483 76.3722C91.304 75.7566 91.4318 75.1032 91.4318 74.4119C91.4223 73.4934 91.2045 72.6506 90.7784 71.8835C90.3523 71.1165 89.7652 70.5009 89.017 70.0369C88.2689 69.5729 87.4261 69.3409 86.4886 69.3409ZM113.179 94.3977C110.991 94.3977 109.045 94.0426 107.341 93.3324C105.646 92.6127 104.315 91.6326 103.349 90.392C102.384 89.1515 101.901 87.7453 101.901 86.1733C101.901 84.9612 102.175 83.8485 102.724 82.8352C103.283 81.8125 104.041 80.965 104.997 80.2926C105.954 79.6108 107.024 79.1752 108.207 78.9858V78.7869C106.654 78.4744 105.395 77.7216 104.429 76.5284C103.463 75.3258 102.98 73.929 102.98 72.3381C102.98 70.8324 103.42 69.4924 104.301 68.3182C105.182 67.1345 106.389 66.2064 107.923 65.5341C109.467 64.8523 111.219 64.5114 113.179 64.5114C115.139 64.5114 116.886 64.8523 118.42 65.5341C119.964 66.2159 121.176 67.1487 122.057 68.3324C122.938 69.5066 123.383 70.8419 123.392 72.3381C123.383 73.9384 122.89 75.3352 121.915 76.5284C120.939 77.7216 119.689 78.4744 118.165 78.7869V78.9858C119.33 79.1752 120.385 79.6108 121.332 80.2926C122.289 80.965 123.046 81.8125 123.605 82.8352C124.173 83.8485 124.462 84.9612 124.472 86.1733C124.462 87.7453 123.974 89.1515 123.009 90.392C122.043 91.6326 120.707 92.6127 119.003 93.3324C117.308 94.0426 115.366 94.3977 113.179 94.3977ZM113.179 89.8807C114.154 89.8807 115.007 89.7055 115.736 89.3551C116.465 88.9953 117.033 88.5028 117.44 87.8778C117.857 87.2434 118.065 86.5142 118.065 85.6903C118.065 84.8475 117.852 84.1042 117.426 83.4602C117 82.8068 116.422 82.2955 115.693 81.9261C114.964 81.5473 114.126 81.358 113.179 81.358C112.241 81.358 111.403 81.5473 110.665 81.9261C109.926 82.2955 109.344 82.8068 108.918 83.4602C108.501 84.1042 108.293 84.8475 108.293 85.6903C108.293 86.5142 108.496 87.2434 108.903 87.8778C109.311 88.5028 109.884 88.9953 110.622 89.3551C111.361 89.7055 112.213 89.8807 113.179 89.8807ZM113.179 76.8835C113.993 76.8835 114.718 76.7178 115.352 76.3864C115.987 76.0549 116.484 75.5956 116.844 75.0085C117.204 74.4214 117.384 73.7443 117.384 72.9773C117.384 72.2197 117.204 71.5568 116.844 70.9886C116.484 70.411 115.991 69.9612 115.366 69.6392C114.741 69.3078 114.012 69.142 113.179 69.142C112.355 69.142 111.626 69.3078 110.991 69.6392C110.357 69.9612 109.86 70.411 109.5 70.9886C109.15 71.5568 108.974 72.2197 108.974 72.9773C108.974 73.7443 109.154 74.4214 109.514 75.0085C109.874 75.5956 110.371 76.0549 111.006 76.3864C111.64 76.7178 112.365 76.8835 113.179 76.8835Z" fill="black"/>
</svg>
