<svg width="154" height="188" viewBox="0 0 154 188" fill="none" xmlns="http://www.w3.org/2000/svg">
<path d="M0 151.5V0H154V151.5H113L76.5 187.5L38 151.5H0Z" fill="#696868"/>
<path d="M42.6001 64.9091V94H36.4496V70.7472H36.2791L29.6172 74.9233V69.4688L36.8189 64.9091H42.6001ZM60.0398 64.5114C61.536 64.5114 62.9754 64.7623 64.358 65.2642C65.75 65.7661 66.9905 66.5663 68.0795 67.6648C69.178 68.7633 70.0445 70.2216 70.679 72.0398C71.3229 73.8485 71.6496 76.0691 71.6591 78.7017C71.6591 81.1733 71.3797 83.3797 70.821 85.321C70.2718 87.2528 69.4811 88.8958 68.4489 90.25C67.4167 91.6042 66.1714 92.6364 64.7131 93.3466C63.2547 94.0473 61.6259 94.3977 59.8267 94.3977C57.8854 94.3977 56.1714 94.0237 54.6847 93.2756C53.1979 92.518 52 91.4905 51.0909 90.1932C50.1913 88.8864 49.6468 87.4186 49.4574 85.7898H55.5227C55.7595 86.8504 56.2566 87.6742 57.0142 88.2614C57.7718 88.839 58.7093 89.1278 59.8267 89.1278C61.7206 89.1278 63.16 88.304 64.1449 86.6562C65.1297 84.9991 65.6269 82.7311 65.6364 79.8523H65.4375C65.0019 80.7045 64.4148 81.4384 63.6761 82.054C62.9375 82.66 62.09 83.1288 61.1335 83.4602C60.1866 83.7917 59.178 83.9574 58.108 83.9574C56.3939 83.9574 54.8646 83.5549 53.5199 82.75C52.1752 81.9451 51.1146 80.8371 50.3381 79.4261C49.5616 78.0152 49.1733 76.4053 49.1733 74.5966C49.1638 72.6458 49.6136 70.9081 50.5227 69.3835C51.4318 67.8589 52.7008 66.6657 54.3295 65.804C55.9678 64.9328 57.8712 64.5019 60.0398 64.5114ZM60.0824 69.3409C59.1259 69.3409 58.2737 69.5682 57.5256 70.0227C56.7869 70.4773 56.1998 71.0881 55.7642 71.8551C55.3381 72.6222 55.1297 73.4792 55.1392 74.4261C55.1392 75.3826 55.3475 76.2443 55.7642 77.0114C56.1903 77.7689 56.768 78.375 57.4972 78.8295C58.2358 79.2746 59.0786 79.4972 60.0256 79.4972C60.7358 79.4972 61.3939 79.3646 62 79.0994C62.6061 78.8343 63.1316 78.4697 63.5767 78.0057C64.0313 77.5322 64.3864 76.9877 64.642 76.3722C64.8977 75.7566 65.0256 75.1032 65.0256 74.4119C65.0161 73.4934 64.7983 72.6506 64.3722 71.8835C63.946 71.1165 63.3589 70.5009 62.6108 70.0369C61.8627 69.5729 61.0199 69.3409 60.0824 69.3409ZM86.7727 94.3977C84.5852 94.3977 82.6392 94.0426 80.9347 93.3324C79.2396 92.6127 77.9091 91.6326 76.9432 90.392C75.9773 89.1515 75.4943 87.7453 75.4943 86.1733C75.4943 84.9612 75.7689 83.8485 76.3182 82.8352C76.8769 81.8125 77.6345 80.965 78.5909 80.2926C79.5473 79.6108 80.6174 79.1752 81.8011 78.9858V78.7869C80.2481 78.4744 78.9886 77.7216 78.0227 76.5284C77.0568 75.3258 76.5739 73.929 76.5739 72.3381C76.5739 70.8324 77.0142 69.4924 77.8949 68.3182C78.7756 67.1345 79.983 66.2064 81.517 65.5341C83.0606 64.8523 84.8125 64.5114 86.7727 64.5114C88.733 64.5114 90.4801 64.8523 92.0142 65.5341C93.5578 66.2159 94.7699 67.1487 95.6506 68.3324C96.5313 69.5066 96.9763 70.8419 96.9858 72.3381C96.9763 73.9384 96.4839 75.3352 95.5085 76.5284C94.5331 77.7216 93.2831 78.4744 91.7585 78.7869V78.9858C92.9233 79.1752 93.9792 79.6108 94.9261 80.2926C95.8826 80.965 96.6402 81.8125 97.1989 82.8352C97.767 83.8485 98.0559 84.9612 98.0653 86.1733C98.0559 87.7453 97.5682 89.1515 96.6023 90.392C95.6364 91.6326 94.3011 92.6127 92.5966 93.3324C90.9015 94.0426 88.9602 94.3977 86.7727 94.3977ZM86.7727 89.8807C87.7481 89.8807 88.6004 89.7055 89.3295 89.3551C90.0587 88.9953 90.6269 88.5028 91.0341 87.8778C91.4508 87.2434 91.6591 86.5142 91.6591 85.6903C91.6591 84.8475 91.446 84.1042 91.0199 83.4602C90.5938 82.8068 90.0161 82.2955 89.2869 81.9261C88.5578 81.5473 87.7197 81.358 86.7727 81.358C85.8352 81.358 84.9972 81.5473 84.2585 81.9261C83.5199 82.2955 82.9375 82.8068 82.5114 83.4602C82.0947 84.1042 81.8864 84.8475 81.8864 85.6903C81.8864 86.5142 82.09 87.2434 82.4972 87.8778C82.9044 88.5028 83.4773 88.9953 84.2159 89.3551C84.9545 89.7055 85.8068 89.8807 86.7727 89.8807ZM86.7727 76.8835C87.5871 76.8835 88.3116 76.7178 88.946 76.3864C89.5805 76.0549 90.0777 75.5956 90.4375 75.0085C90.7973 74.4214 90.9773 73.7443 90.9773 72.9773C90.9773 72.2197 90.7973 71.5568 90.4375 70.9886C90.0777 70.411 89.5852 69.9612 88.9602 69.6392C88.3352 69.3078 87.6061 69.142 86.7727 69.142C85.9489 69.142 85.2197 69.3078 84.5852 69.6392C83.9508 69.9612 83.4536 70.411 83.0938 70.9886C82.7434 71.5568 82.5682 72.2197 82.5682 72.9773C82.5682 73.7443 82.7481 74.4214 83.108 75.0085C83.4678 75.5956 83.965 76.0549 84.5994 76.3864C85.2339 76.7178 85.9583 76.8835 86.7727 76.8835ZM113.531 94.3977C112.034 94.3883 110.59 94.1373 109.198 93.6449C107.816 93.1525 106.575 92.3523 105.477 91.2443C104.378 90.1364 103.507 88.6686 102.863 86.8409C102.228 85.0133 101.911 82.7689 101.911 80.108C101.921 77.6648 102.2 75.482 102.749 73.5597C103.308 71.6278 104.103 69.9896 105.136 68.6449C106.177 67.3002 107.423 66.2775 108.871 65.5767C110.32 64.8665 111.944 64.5114 113.744 64.5114C115.685 64.5114 117.399 64.8902 118.886 65.6477C120.372 66.3958 121.566 67.4138 122.465 68.7017C123.374 69.9896 123.924 71.4337 124.113 73.0341H118.048C117.811 72.0208 117.314 71.2254 116.556 70.6477C115.799 70.0701 114.861 69.7812 113.744 69.7812C111.85 69.7812 110.41 70.6051 109.425 72.2528C108.45 73.9006 107.953 76.1402 107.934 78.9716H108.133C108.568 78.1098 109.156 77.3759 109.894 76.7699C110.642 76.1544 111.49 75.6856 112.437 75.3636C113.393 75.0322 114.402 74.8665 115.462 74.8665C117.186 74.8665 118.72 75.2737 120.065 76.0881C121.409 76.893 122.47 78.0009 123.246 79.4119C124.023 80.8229 124.411 82.4375 124.411 84.2557C124.411 86.2254 123.952 87.9773 123.033 89.5114C122.124 91.0455 120.851 92.2481 119.212 93.1193C117.584 93.9811 115.69 94.4072 113.531 94.3977ZM113.502 89.5682C114.449 89.5682 115.297 89.3409 116.045 88.8864C116.793 88.4318 117.38 87.8163 117.806 87.0398C118.232 86.2633 118.445 85.392 118.445 84.4261C118.445 83.4602 118.232 82.5937 117.806 81.8267C117.389 81.0597 116.812 80.4489 116.073 79.9943C115.335 79.5398 114.492 79.3125 113.545 79.3125C112.835 79.3125 112.176 79.4451 111.57 79.7102C110.974 79.9754 110.448 80.3447 109.994 80.8182C109.549 81.2917 109.198 81.8409 108.942 82.4659C108.687 83.0814 108.559 83.7396 108.559 84.4403C108.559 85.3778 108.772 86.2348 109.198 87.0114C109.634 87.7879 110.221 88.4081 110.96 88.8722C111.708 89.3362 112.555 89.5682 113.502 89.5682Z" fill="black"/>
</svg>
