<svg width="154" height="188" viewBox="0 0 154 188" fill="none" xmlns="http://www.w3.org/2000/svg">
<path d="M0 151.5V0H154V151.5H113L76.5 187.5L38 151.5H0Z" fill="#696868"/>
<path d="M29.4361 94V89.5682L39.7912 79.9801C40.6719 79.1278 41.4105 78.3608 42.0071 77.679C42.6132 76.9972 43.0724 76.3295 43.3849 75.6761C43.6974 75.0133 43.8537 74.2983 43.8537 73.5312C43.8537 72.679 43.6596 71.9451 43.2713 71.3295C42.883 70.7045 42.3527 70.2263 41.6804 69.8949C41.008 69.554 40.2457 69.3835 39.3935 69.3835C38.5033 69.3835 37.7268 69.5634 37.0639 69.9233C36.401 70.2831 35.8897 70.7992 35.5298 71.4716C35.17 72.1439 34.9901 72.9441 34.9901 73.8722H29.152C29.152 71.9687 29.5829 70.3163 30.4446 68.9148C31.3063 67.5133 32.5137 66.429 34.0668 65.6619C35.6198 64.8949 37.4096 64.5114 39.4361 64.5114C41.5194 64.5114 43.3329 64.8807 44.8764 65.6193C46.4295 66.3485 47.6368 67.3617 48.4986 68.6591C49.3603 69.9564 49.7912 71.4432 49.7912 73.1193C49.7912 74.2178 49.5734 75.3021 49.1378 76.3722C48.7116 77.4422 47.9493 78.6307 46.8509 79.9375C45.7524 81.2348 44.2041 82.7926 42.206 84.6108L37.9588 88.7727V88.9716H50.1747V94H29.4361ZM66.0376 94.6392C63.5945 94.6297 61.4922 94.0284 59.7308 92.8352C57.9789 91.642 56.6295 89.9138 55.6825 87.6506C54.745 85.3873 54.281 82.6648 54.2905 79.483C54.2905 76.3106 54.7592 73.607 55.6967 71.3722C56.6437 69.1373 57.9931 67.4375 59.745 66.2727C61.5064 65.0985 63.6039 64.5114 66.0376 64.5114C68.4714 64.5114 70.5642 65.0985 72.3161 66.2727C74.0774 67.447 75.4316 69.1515 76.3786 71.3864C77.3255 73.6117 77.7943 76.3106 77.7848 79.483C77.7848 82.6742 77.3113 85.4015 76.3643 87.6648C75.4268 89.928 74.0822 91.6562 72.3303 92.8494C70.5784 94.0426 68.4808 94.6392 66.0376 94.6392ZM66.0376 89.5398C67.7043 89.5398 69.0348 88.7017 70.0291 87.0256C71.0234 85.3494 71.5159 82.8352 71.5064 79.483C71.5064 77.2765 71.2791 75.4394 70.8246 73.9716C70.3795 72.5038 69.745 71.4006 68.9212 70.6619C68.1068 69.9233 67.1456 69.554 66.0376 69.554C64.3804 69.554 63.0547 70.3826 62.0604 72.0398C61.0661 73.697 60.5642 76.178 60.5547 79.483C60.5547 81.7178 60.7772 83.5833 61.2223 85.0795C61.6768 86.5663 62.3161 87.6837 63.1399 88.4318C63.9638 89.1705 64.9297 89.5398 66.0376 89.5398ZM94.8267 64.9091V94H88.6761V70.7472H88.5057L81.8438 74.9233V69.4688L89.0455 64.9091H94.8267ZM113.147 94.6392C110.704 94.6297 108.602 94.0284 106.84 92.8352C105.088 91.642 103.739 89.9138 102.792 87.6506C101.854 85.3873 101.39 82.6648 101.4 79.483C101.4 76.3106 101.869 73.607 102.806 71.3722C103.753 69.1373 105.103 67.4375 106.854 66.2727C108.616 65.0985 110.713 64.5114 113.147 64.5114C115.581 64.5114 117.674 65.0985 119.425 66.2727C121.187 67.447 122.541 69.1515 123.488 71.3864C124.435 73.6117 124.904 76.3106 124.894 79.483C124.894 82.6742 124.421 85.4015 123.474 87.6648C122.536 89.928 121.192 91.6562 119.44 92.8494C117.688 94.0426 115.59 94.6392 113.147 94.6392ZM113.147 89.5398C114.814 89.5398 116.144 88.7017 117.138 87.0256C118.133 85.3494 118.625 82.8352 118.616 79.483C118.616 77.2765 118.388 75.4394 117.934 73.9716C117.489 72.5038 116.854 71.4006 116.031 70.6619C115.216 69.9233 114.255 69.554 113.147 69.554C111.49 69.554 110.164 70.3826 109.17 72.0398C108.175 73.697 107.674 76.178 107.664 79.483C107.664 81.7178 107.887 83.5833 108.332 85.0795C108.786 86.5663 109.425 87.6837 110.249 88.4318C111.073 89.1705 112.039 89.5398 113.147 89.5398Z" fill="black"/>
</svg>
