<svg width="370" height="154" viewBox="0 0 370 154" fill="none" xmlns="http://www.w3.org/2000/svg">
<ellipse cx="13.9384" cy="14.331" rx="13.9384" ry="14.331" fill="#7B5151"/>
<ellipse cx="13.9384" cy="56.0213" rx="13.9384" ry="14.331" fill="#ADADAD"/>
<ellipse cx="13.9384" cy="97.7115" rx="13.9384" ry="14.331" fill="#7B7B7B"/>
<ellipse cx="13.9384" cy="139.401" rx="13.9384" ry="14.331" fill="black"/>
<ellipse cx="49.4178" cy="14.331" rx="13.9384" ry="14.331" fill="#7B5151"/>
<ellipse cx="49.4178" cy="56.0213" rx="13.9384" ry="14.331" fill="#ADADAD"/>
<ellipse cx="49.4178" cy="97.7115" rx="13.9384" ry="14.331" fill="#7B7B7B"/>
<ellipse cx="49.4178" cy="139.401" rx="13.9384" ry="14.331" fill="black"/>
<ellipse cx="84.8973" cy="14.331" rx="13.9384" ry="14.331" fill="#7B5151"/>
<ellipse cx="84.8973" cy="56.0213" rx="13.9384" ry="14.331" fill="#ADADAD"/>
<ellipse cx="84.8973" cy="97.7115" rx="13.9384" ry="14.331" fill="#7B7B7B"/>
<ellipse cx="84.8973" cy="139.401" rx="13.9384" ry="14.331" fill="black"/>
<ellipse cx="120.377" cy="14.331" rx="13.9384" ry="14.331" fill="#7B5151"/>
<ellipse cx="120.377" cy="56.0213" rx="13.9384" ry="14.331" fill="#D9D9D9"/>
<ellipse cx="120.377" cy="97.7115" rx="13.9384" ry="14.331" fill="#7B7B7B"/>
<ellipse cx="120.377" cy="139.401" rx="13.9384" ry="14.331" fill="black"/>
<ellipse cx="155.856" cy="14.331" rx="13.9384" ry="14.331" fill="#7B5151"/>
<ellipse cx="155.856" cy="56.0213" rx="13.9384" ry="14.331" fill="#D9D9D9"/>
<ellipse cx="155.856" cy="97.7115" rx="13.9384" ry="14.331" fill="#7B7B7B"/>
<ellipse cx="155.856" cy="139.401" rx="13.9384" ry="14.331" fill="#D9D9D9"/>
<ellipse cx="191.336" cy="14.331" rx="13.9384" ry="14.331" fill="#7B5151"/>
<ellipse cx="191.336" cy="56.0213" rx="13.9384" ry="14.331" fill="#D9D9D9"/>
<ellipse cx="191.336" cy="97.7115" rx="13.9384" ry="14.331" fill="#7B7B7B"/>
<ellipse cx="191.336" cy="139.401" rx="13.9384" ry="14.331" fill="#D9D9D9"/>
<ellipse cx="226.815" cy="14.331" rx="13.9384" ry="14.331" fill="#7B5151"/>
<ellipse cx="226.815" cy="56.0213" rx="13.9384" ry="14.331" fill="#D9D9D9"/>
<ellipse cx="226.815" cy="97.7115" rx="13.9384" ry="14.331" fill="#D9D9D9"/>
<ellipse cx="226.815" cy="139.401" rx="13.9384" ry="14.331" fill="#D9D9D9"/>
<ellipse cx="262.295" cy="14.331" rx="13.9384" ry="14.331" fill="#D9D9D9"/>
<ellipse cx="262.295" cy="56.0213" rx="13.9384" ry="14.331" fill="#D9D9D9"/>
<ellipse cx="262.295" cy="97.7115" rx="13.9384" ry="14.331" fill="#D9D9D9"/>
<ellipse cx="262.295" cy="139.401" rx="13.9384" ry="14.331" fill="#D9D9D9"/>
<ellipse cx="297.774" cy="14.331" rx="13.9384" ry="14.331" fill="#D9D9D9"/>
<ellipse cx="297.774" cy="56.0213" rx="13.9384" ry="14.331" fill="#D9D9D9"/>
<ellipse cx="297.774" cy="97.7115" rx="13.9384" ry="14.331" fill="#D9D9D9"/>
<ellipse cx="297.774" cy="139.401" rx="13.9384" ry="14.331" fill="#D9D9D9"/>
<path opacity="0.7" d="M326.209 19L332.395 6.75568V6.65625H325.215V4.45455H335.122V6.70597L328.943 19H326.209ZM342.276 19.1989C341.329 19.1989 340.481 19.0213 339.733 18.6662C338.985 18.3063 338.391 17.8139 337.951 17.1889C337.515 16.5639 337.283 15.849 337.255 15.044H339.811C339.859 15.6406 340.117 16.1283 340.586 16.5071C341.054 16.8812 341.618 17.0682 342.276 17.0682C342.792 17.0682 343.251 16.9498 343.654 16.7131C344.056 16.4763 344.374 16.1473 344.606 15.7259C344.838 15.3045 344.951 14.8239 344.946 14.2841C344.951 13.7348 344.835 13.2472 344.598 12.821C344.362 12.3949 344.037 12.0611 343.625 11.8196C343.213 11.5734 342.74 11.4503 342.205 11.4503C341.769 11.4455 341.341 11.526 340.919 11.6918C340.498 11.8575 340.164 12.0753 339.918 12.3452L337.539 11.9545L338.299 4.45455H346.736V6.65625H340.479L340.06 10.5128H340.145C340.415 10.1955 340.796 9.93276 341.289 9.72443C341.781 9.51136 342.321 9.40483 342.908 9.40483C343.789 9.40483 344.575 9.61316 345.266 10.0298C345.957 10.4418 346.502 11.0099 346.9 11.7344C347.297 12.4588 347.496 13.2874 347.496 14.2202C347.496 15.1813 347.274 16.0384 346.829 16.7912C346.388 17.5393 345.775 18.1288 344.989 18.5597C344.208 18.9858 343.303 19.1989 342.276 19.1989ZM357.652 16.2727V15.5057C357.652 14.9422 357.771 14.4238 358.008 13.9503C358.249 13.4768 358.599 13.0956 359.059 12.8068C359.518 12.518 360.074 12.3736 360.728 12.3736C361.4 12.3736 361.963 12.518 362.418 12.8068C362.873 13.0909 363.216 13.4697 363.448 13.9432C363.685 14.4167 363.803 14.9375 363.803 15.5057V16.2727C363.803 16.8362 363.685 17.3546 363.448 17.8281C363.211 18.3016 362.863 18.6828 362.404 18.9716C361.949 19.2604 361.391 19.4048 360.728 19.4048C360.065 19.4048 359.504 19.2604 359.044 18.9716C358.585 18.6828 358.237 18.3016 358 17.8281C357.768 17.3546 357.652 16.8362 357.652 16.2727ZM359.506 15.5057V16.2727C359.506 16.6468 359.596 16.9901 359.776 17.3026C359.956 17.6151 360.273 17.7713 360.728 17.7713C361.187 17.7713 361.502 17.6174 361.672 17.3097C361.847 16.9972 361.935 16.6515 361.935 16.2727V15.5057C361.935 15.1269 361.852 14.7812 361.686 14.4688C361.521 14.1515 361.201 13.9929 360.728 13.9929C360.283 13.9929 359.968 14.1515 359.783 14.4688C359.598 14.7812 359.506 15.1269 359.506 15.5057ZM350.259 7.94886V7.18182C350.259 6.61364 350.38 6.0928 350.621 5.61932C350.863 5.14583 351.213 4.76704 351.672 4.48295C352.132 4.19413 352.688 4.04972 353.341 4.04972C354.009 4.04972 354.57 4.19413 355.025 4.48295C355.484 4.76704 355.829 5.14583 356.061 5.61932C356.293 6.0928 356.409 6.61364 356.409 7.18182V7.94886C356.409 8.51705 356.291 9.03788 356.054 9.51136C355.822 9.98011 355.477 10.3565 355.017 10.6406C354.558 10.9247 353.999 11.0668 353.341 11.0668C352.674 11.0668 352.11 10.9247 351.651 10.6406C351.196 10.3565 350.851 9.97775 350.614 9.50426C350.377 9.03078 350.259 8.51231 350.259 7.94886ZM352.127 7.18182V7.94886C352.127 8.32765 352.214 8.6733 352.39 8.9858C352.57 9.29356 352.887 9.44744 353.341 9.44744C353.796 9.44744 354.108 9.29356 354.279 8.9858C354.454 8.6733 354.542 8.32765 354.542 7.94886V7.18182C354.542 6.80303 354.459 6.45739 354.293 6.14489C354.127 5.82765 353.81 5.66903 353.341 5.66903C352.892 5.66903 352.577 5.82765 352.397 6.14489C352.217 6.46212 352.127 6.80777 352.127 7.18182ZM351.069 19L361.069 4.45455H362.844L352.844 19H351.069Z" fill="#727272"/>
<path opacity="0.7" d="M330.896 60.8892C329.874 60.8892 328.965 60.714 328.169 60.3636C327.378 60.0132 326.753 59.5255 326.294 58.9005C325.835 58.2755 325.591 57.5535 325.563 56.7343H328.233C328.257 57.1273 328.387 57.4706 328.624 57.7642C328.86 58.053 329.175 58.2779 329.568 58.4389C329.961 58.5999 330.402 58.6803 330.889 58.6803C331.41 58.6803 331.872 58.5904 332.274 58.4105C332.677 58.2258 332.992 57.9701 333.219 57.6434C333.446 57.3167 333.557 56.9403 333.553 56.5142C333.557 56.0738 333.444 55.6856 333.212 55.3494C332.98 55.0132 332.644 54.7504 332.203 54.561C331.768 54.3716 331.242 54.2769 330.626 54.2769H329.341V52.2457H330.626C331.133 52.2457 331.576 52.1581 331.955 51.9829C332.338 51.8077 332.639 51.5615 332.857 51.2443C333.074 50.9223 333.181 50.5506 333.176 50.1292C333.181 49.7173 333.089 49.3598 332.899 49.0568C332.715 48.749 332.452 48.5099 332.111 48.3394C331.775 48.169 331.379 48.0838 330.925 48.0838C330.48 48.0838 330.068 48.1642 329.689 48.3252C329.31 48.4862 329.005 48.7159 328.773 49.0142C328.541 49.3077 328.418 49.6581 328.403 50.0653H325.868C325.887 49.2509 326.121 48.5359 326.571 47.9204C327.026 47.3001 327.632 46.8172 328.389 46.4715C329.147 46.1212 329.997 45.946 330.939 45.946C331.91 45.946 332.752 46.1283 333.467 46.4928C334.187 46.8527 334.743 47.338 335.136 47.9488C335.529 48.5596 335.726 49.2343 335.726 49.973C335.731 50.7921 335.489 51.4786 335.001 52.0326C334.519 52.5866 333.884 52.9488 333.098 53.1193V53.2329C334.121 53.375 334.904 53.7537 335.449 54.3693C335.998 54.9801 336.27 55.74 336.266 56.6491C336.266 57.4635 336.034 58.1927 335.57 58.8366C335.11 59.4758 334.476 59.9777 333.666 60.3423C332.861 60.7069 331.938 60.8892 330.896 60.8892ZM344.08 60.9673C342.91 60.9673 341.907 60.6714 341.069 60.0795C340.235 59.4829 339.594 58.6235 339.144 57.5014C338.699 56.3745 338.476 55.0179 338.476 53.4318C338.481 51.8456 338.706 50.4962 339.151 49.3835C339.601 48.266 340.242 47.4138 341.076 46.8267C341.914 46.2395 342.915 45.946 344.08 45.946C345.245 45.946 346.246 46.2395 347.084 46.8267C347.922 47.4138 348.564 48.266 349.009 49.3835C349.459 50.5009 349.684 51.8503 349.684 53.4318C349.684 55.0227 349.459 56.3816 349.009 57.5085C348.564 58.6306 347.922 59.4876 347.084 60.0795C346.251 60.6714 345.249 60.9673 344.08 60.9673ZM344.08 58.7443C344.989 58.7443 345.706 58.2968 346.232 57.4019C346.762 56.5023 347.027 55.1789 347.027 53.4318C347.027 52.2765 346.907 51.3058 346.665 50.5198C346.424 49.7339 346.083 49.142 345.642 48.7443C345.202 48.3418 344.681 48.1406 344.08 48.1406C343.176 48.1406 342.461 48.5904 341.935 49.49C341.409 50.3849 341.144 51.6988 341.14 53.4318C341.135 54.5918 341.251 55.5672 341.488 56.3579C341.729 57.1486 342.07 57.7452 342.51 58.1477C342.951 58.5454 343.474 58.7443 344.08 58.7443ZM359.82 57.963V57.196C359.82 56.6325 359.939 56.1141 360.175 55.6406C360.417 55.1671 360.767 54.7859 361.227 54.4971C361.686 54.2083 362.242 54.0639 362.896 54.0639C363.568 54.0639 364.131 54.2083 364.586 54.4971C365.041 54.7812 365.384 55.16 365.616 55.6335C365.853 56.107 365.971 56.6278 365.971 57.196V57.963C365.971 58.5265 365.853 59.0449 365.616 59.5184C365.379 59.9919 365.031 60.3731 364.572 60.6619C364.117 60.9507 363.559 61.0951 362.896 61.0951C362.233 61.0951 361.672 60.9507 361.212 60.6619C360.753 60.3731 360.405 59.9919 360.168 59.5184C359.936 59.0449 359.82 58.5265 359.82 57.963ZM361.674 57.196V57.963C361.674 58.3371 361.764 58.6803 361.944 58.9928C362.124 59.3053 362.441 59.4616 362.896 59.4616C363.355 59.4616 363.67 59.3077 363.84 59C364.015 58.6875 364.103 58.3418 364.103 57.963V57.196C364.103 56.8172 364.02 56.4715 363.854 56.159C363.689 55.8418 363.369 55.6832 362.896 55.6832C362.451 55.6832 362.136 55.8418 361.951 56.159C361.766 56.4715 361.674 56.8172 361.674 57.196ZM352.427 49.6392V48.8721C352.427 48.3039 352.548 47.7831 352.789 47.3096C353.031 46.8361 353.381 46.4573 353.84 46.1732C354.3 45.8844 354.856 45.74 355.509 45.74C356.177 45.74 356.738 45.8844 357.193 46.1732C357.652 46.4573 357.997 46.8361 358.229 47.3096C358.461 47.7831 358.577 48.3039 358.577 48.8721V49.6392C358.577 50.2073 358.459 50.7282 358.222 51.2017C357.99 51.6704 357.645 52.0468 357.185 52.3309C356.726 52.615 356.167 52.7571 355.509 52.7571C354.842 52.7571 354.278 52.615 353.819 52.3309C353.364 52.0468 353.019 51.668 352.782 51.1946C352.545 50.7211 352.427 50.2026 352.427 49.6392ZM354.295 48.8721V49.6392C354.295 50.0179 354.382 50.3636 354.558 50.6761C354.738 50.9839 355.055 51.1377 355.509 51.1377C355.964 51.1377 356.276 50.9839 356.447 50.6761C356.622 50.3636 356.71 50.0179 356.71 49.6392V48.8721C356.71 48.4933 356.627 48.1477 356.461 47.8352C356.295 47.5179 355.978 47.3593 355.509 47.3593C355.059 47.3593 354.745 47.5179 354.565 47.8352C354.385 48.1524 354.295 48.4981 354.295 48.8721ZM353.237 60.6903L363.237 46.1448H365.012L355.012 60.6903H353.237Z" fill="#727272"/>
<path opacity="0.7" d="M330.733 102.579C329.786 102.579 328.938 102.402 328.19 102.047C327.442 101.687 326.848 101.194 326.408 100.569C325.972 99.9444 325.74 99.2295 325.712 98.4245H328.269C328.316 99.0211 328.574 99.5088 329.043 99.8876C329.511 100.262 330.075 100.449 330.733 100.449C331.249 100.449 331.708 100.33 332.111 100.094C332.513 99.8568 332.831 99.5278 333.063 99.1064C333.295 98.685 333.408 98.2044 333.403 97.6646C333.408 97.1153 333.292 96.6277 333.055 96.2015C332.819 95.7754 332.494 95.4416 332.082 95.2001C331.671 94.9539 331.197 94.8308 330.662 94.8308C330.226 94.826 329.798 94.9065 329.376 95.0723C328.955 95.238 328.621 95.4558 328.375 95.7257L325.996 95.335L326.756 87.835H335.193V90.0368H328.936L328.517 93.8933H328.602C328.872 93.576 329.253 93.3133 329.746 93.1049C330.238 92.8919 330.778 92.7853 331.365 92.7853C332.246 92.7853 333.032 92.9937 333.723 93.4103C334.414 93.8223 334.959 94.3904 335.357 95.1149C335.754 95.8393 335.953 96.6679 335.953 97.6007C335.953 98.5618 335.731 99.4189 335.286 100.172C334.845 100.92 334.232 101.509 333.446 101.94C332.665 102.366 331.76 102.579 330.733 102.579ZM343.389 102.579C342.442 102.579 341.595 102.402 340.847 102.047C340.099 101.687 339.504 101.194 339.064 100.569C338.628 99.9444 338.396 99.2295 338.368 98.4245H340.925C340.972 99.0211 341.23 99.5088 341.699 99.8876C342.168 100.262 342.731 100.449 343.389 100.449C343.905 100.449 344.365 100.33 344.767 100.094C345.17 99.8568 345.487 99.5278 345.719 99.1064C345.951 98.685 346.064 98.2044 346.06 97.6646C346.064 97.1153 345.948 96.6277 345.712 96.2015C345.475 95.7754 345.151 95.4416 344.739 95.2001C344.327 94.9539 343.853 94.8308 343.318 94.8308C342.883 94.826 342.454 94.9065 342.033 95.0723C341.611 95.238 341.278 95.4558 341.031 95.7257L338.652 95.335L339.412 87.835H347.849V90.0368H341.592L341.173 93.8933H341.259C341.528 93.576 341.91 93.3133 342.402 93.1049C342.894 92.8919 343.434 92.7853 344.021 92.7853C344.902 92.7853 345.688 92.9937 346.379 93.4103C347.071 93.8223 347.615 94.3904 348.013 95.1149C348.411 95.8393 348.609 96.6679 348.609 97.6007C348.609 98.5618 348.387 99.4189 347.942 100.172C347.501 100.92 346.888 101.509 346.102 101.94C345.321 102.366 344.417 102.579 343.389 102.579ZM358.766 99.6532V98.8862C358.766 98.3227 358.884 97.8043 359.121 97.3308C359.362 96.8573 359.713 96.4761 360.172 96.1873C360.631 95.8985 361.188 95.7541 361.841 95.7541C362.513 95.7541 363.077 95.8985 363.531 96.1873C363.986 96.4714 364.329 96.8502 364.561 97.3237C364.798 97.7972 364.916 98.318 364.916 98.8862V99.6532C364.916 100.217 364.798 100.735 364.561 101.209C364.324 101.682 363.976 102.063 363.517 102.352C363.063 102.641 362.504 102.785 361.841 102.785C361.178 102.785 360.617 102.641 360.158 102.352C359.698 102.063 359.35 101.682 359.114 101.209C358.882 100.735 358.766 100.217 358.766 99.6532ZM360.619 98.8862V99.6532C360.619 100.027 360.709 100.371 360.889 100.683C361.069 100.996 361.386 101.152 361.841 101.152C362.3 101.152 362.615 100.998 362.786 100.69C362.961 100.378 363.048 100.032 363.048 99.6532V98.8862C363.048 98.5074 362.965 98.1618 362.8 97.8493C362.634 97.532 362.314 97.3734 361.841 97.3734C361.396 97.3734 361.081 97.532 360.896 97.8493C360.712 98.1618 360.619 98.5074 360.619 98.8862ZM351.372 91.3294V90.5623C351.372 89.9941 351.493 89.4733 351.734 88.9998C351.976 88.5263 352.326 88.1475 352.786 87.8635C353.245 87.5746 353.801 87.4302 354.455 87.4302C355.122 87.4302 355.683 87.5746 356.138 87.8635C356.597 88.1475 356.943 88.5263 357.175 88.9998C357.407 89.4733 357.523 89.9941 357.523 90.5623V91.3294C357.523 91.8975 357.404 92.4184 357.168 92.8919C356.936 93.3606 356.59 93.737 356.131 94.0211C355.671 94.3052 355.113 94.4473 354.455 94.4473C353.787 94.4473 353.224 94.3052 352.764 94.0211C352.31 93.737 351.964 93.3582 351.727 92.8848C351.491 92.4113 351.372 91.8928 351.372 91.3294ZM353.24 90.5623V91.3294C353.24 91.7082 353.328 92.0538 353.503 92.3663C353.683 92.6741 354 92.8279 354.455 92.8279C354.909 92.8279 355.222 92.6741 355.392 92.3663C355.567 92.0538 355.655 91.7082 355.655 91.3294V90.5623C355.655 90.1835 355.572 89.8379 355.406 89.5254C355.241 89.2082 354.923 89.0495 354.455 89.0495C354.005 89.0495 353.69 89.2082 353.51 89.5254C353.33 89.8426 353.24 90.1883 353.24 90.5623ZM352.182 102.381L362.182 87.835H363.957L353.957 102.381H352.182Z" fill="#727272"/>
<path opacity="0.7" d="M325.413 141.372V139.276L331.585 129.525H333.332V132.508H332.267L328.112 139.092V139.205H336.727V141.372H325.413ZM332.352 144.07V140.732L332.381 139.795V129.525H334.867V144.07H332.352ZM344.373 144.347C343.203 144.347 342.2 144.052 341.362 143.46C340.528 142.863 339.887 142.004 339.437 140.882C338.992 139.755 338.769 138.398 338.769 136.812C338.774 135.226 338.999 133.876 339.444 132.764C339.894 131.646 340.535 130.794 341.369 130.207C342.207 129.62 343.208 129.326 344.373 129.326C345.538 129.326 346.539 129.62 347.377 130.207C348.215 130.794 348.857 131.646 349.302 132.764C349.752 133.881 349.977 135.23 349.977 136.812C349.977 138.403 349.752 139.762 349.302 140.889C348.857 142.011 348.215 142.868 347.377 143.46C346.544 144.052 345.542 144.347 344.373 144.347ZM344.373 142.124C345.282 142.124 345.999 141.677 346.525 140.782C347.055 139.882 347.32 138.559 347.32 136.812C347.32 135.657 347.2 134.686 346.958 133.9C346.717 133.114 346.376 132.522 345.935 132.124C345.495 131.722 344.974 131.521 344.373 131.521C343.469 131.521 342.754 131.971 342.228 132.87C341.702 133.765 341.437 135.079 341.433 136.812C341.428 137.972 341.544 138.947 341.781 139.738C342.022 140.529 342.363 141.125 342.803 141.528C343.244 141.926 343.767 142.124 344.373 142.124ZM360.113 141.343V140.576C360.113 140.013 360.232 139.494 360.468 139.021C360.71 138.547 361.06 138.166 361.52 137.877C361.979 137.588 362.535 137.444 363.189 137.444C363.861 137.444 364.424 137.588 364.879 137.877C365.334 138.161 365.677 138.54 365.909 139.014C366.146 139.487 366.264 140.008 366.264 140.576V141.343C366.264 141.907 366.146 142.425 365.909 142.899C365.672 143.372 365.324 143.753 364.865 144.042C364.41 144.331 363.851 144.475 363.189 144.475C362.526 144.475 361.965 144.331 361.505 144.042C361.046 143.753 360.698 143.372 360.461 142.899C360.229 142.425 360.113 141.907 360.113 141.343ZM361.967 140.576V141.343C361.967 141.717 362.057 142.061 362.237 142.373C362.417 142.686 362.734 142.842 363.189 142.842C363.648 142.842 363.963 142.688 364.133 142.38C364.308 142.068 364.396 141.722 364.396 141.343V140.576C364.396 140.197 364.313 139.852 364.147 139.539C363.982 139.222 363.662 139.063 363.189 139.063C362.744 139.063 362.429 139.222 362.244 139.539C362.059 139.852 361.967 140.197 361.967 140.576ZM352.72 133.019V132.252C352.72 131.684 352.841 131.163 353.082 130.69C353.324 130.216 353.674 129.838 354.133 129.553C354.593 129.265 355.149 129.12 355.802 129.12C356.47 129.12 357.031 129.265 357.485 129.553C357.945 129.838 358.29 130.216 358.522 130.69C358.754 131.163 358.87 131.684 358.87 132.252V133.019C358.87 133.588 358.752 134.108 358.515 134.582C358.283 135.051 357.938 135.427 357.478 135.711C357.019 135.995 356.46 136.137 355.802 136.137C355.135 136.137 354.571 135.995 354.112 135.711C353.657 135.427 353.312 135.048 353.075 134.575C352.838 134.101 352.72 133.583 352.72 133.019ZM354.588 132.252V133.019C354.588 133.398 354.675 133.744 354.851 134.056C355.03 134.364 355.348 134.518 355.802 134.518C356.257 134.518 356.569 134.364 356.74 134.056C356.915 133.744 357.003 133.398 357.003 133.019V132.252C357.003 131.873 356.92 131.528 356.754 131.215C356.588 130.898 356.271 130.739 355.802 130.739C355.352 130.739 355.038 130.898 354.858 131.215C354.678 131.533 354.588 131.878 354.588 132.252ZM353.53 144.07L363.53 129.525H365.305L355.305 144.07H353.53Z" fill="#727272"/>
</svg>
