<svg width="66" height="84" viewBox="0 0 66 84" fill="none" xmlns="http://www.w3.org/2000/svg">
<g filter="url(#filter0_d_1_89)">
<rect x="5" y="62" width="4" height="13" fill="#D9D9D9"/>
<rect x="5" y="62" width="4" height="13" fill="#999898"/>
<rect x="5" y="33" width="4" height="42" fill="#444343"/>
<rect x="5" y="8" width="4.15385" height="13" fill="#D9D9D9"/>
<rect x="5" y="21" width="4.15385" height="13" fill="#999898"/>
<rect x="5" y="34" width="4.15385" height="42" fill="#444343"/>
<rect x="13" y="21" width="4.15385" height="13" fill="#D9D9D9"/>
<rect x="13" y="34" width="4.15385" height="42" fill="#444343"/>
<rect x="13" y="34" width="4.15385" height="13" fill="#999898"/>
<rect x="30" y="18" width="4.15385" height="13" fill="#D9D9D9"/>
<rect x="30" y="34" width="4.15385" height="42" fill="#444343"/>
<rect x="30" y="31" width="4.15385" height="30" fill="#999898"/>
<rect x="21.6154" y="45" width="4.15385" height="31" fill="#444343"/>
<rect x="21.6154" y="33" width="4.15385" height="13" fill="#D9D9D9"/>
<rect x="21.6154" y="45" width="4.15385" height="16" fill="#999898"/>
<rect x="47" y="45" width="4.15385" height="31" fill="#444343"/>
<rect x="47" y="24" width="4.15385" height="22" fill="#D9D9D9"/>
<rect x="47" y="45" width="4.15385" height="16" fill="#999898"/>
<rect x="38.2308" y="45" width="4.15385" height="31" fill="#444343"/>
<rect x="38.2308" y="39" width="4.15385" height="13" fill="#D9D9D9"/>
<rect x="38.2308" y="52" width="4.15385" height="9" fill="#999898"/>
<rect x="55" y="45" width="4.15385" height="31" fill="#444343"/>
<rect x="55" y="44" width="4.15385" height="13" fill="#D9D9D9"/>
<rect x="55" y="57" width="4.15385" height="4" fill="#999898"/>
<path d="M4.96626 0.788352C5.07848 0.788352 5.18643 0.807173 5.29013 0.844815C5.39453 0.882457 5.48757 0.942472 5.56925 1.02486C5.65163 1.10724 5.71662 1.21662 5.7642 1.35298C5.8125 1.48864 5.837 1.65518 5.83771 1.85263C5.83771 2.038 5.81676 2.20348 5.77486 2.34908C5.73366 2.49396 5.67436 2.61719 5.59695 2.71875C5.51953 2.82031 5.42614 2.89773 5.31676 2.95099C5.20739 3.00355 5.08523 3.02983 4.95028 3.02983C4.80469 3.02983 4.67614 3.00178 4.56463 2.94567C4.45313 2.88885 4.36328 2.81179 4.2951 2.71449C4.22763 2.61648 4.18679 2.50639 4.17259 2.38423H4.62749C4.64524 2.46378 4.68253 2.52557 4.73935 2.5696C4.79616 2.61293 4.86648 2.63459 4.95028 2.63459C5.09233 2.63459 5.20028 2.5728 5.27415 2.44922C5.34801 2.32493 5.3853 2.15483 5.38601 1.93892H5.37109C5.33842 2.00284 5.29439 2.05788 5.23899 2.10405C5.18359 2.1495 5.12003 2.18466 5.0483 2.20952C4.97727 2.23438 4.90163 2.2468 4.82138 2.2468C4.69283 2.2468 4.57812 2.21662 4.47727 2.15625C4.37642 2.09588 4.29688 2.01278 4.23864 1.90696C4.1804 1.80114 4.15128 1.6804 4.15128 1.54474C4.15057 1.39844 4.1843 1.26811 4.25249 1.15376C4.32067 1.03942 4.41584 0.949929 4.538 0.885298C4.66087 0.819957 4.80362 0.787642 4.96626 0.788352ZM4.96946 1.15057C4.89773 1.15057 4.83381 1.16761 4.7777 1.2017C4.7223 1.2358 4.67827 1.28161 4.6456 1.33913C4.61364 1.39666 4.59801 1.46094 4.59872 1.53196C4.59872 1.60369 4.61435 1.66832 4.6456 1.72585C4.67756 1.78267 4.72088 1.82812 4.77557 1.86222C4.83097 1.8956 4.89418 1.91229 4.9652 1.91229C5.01847 1.91229 5.06783 1.90234 5.11328 1.88246C5.15874 1.86257 5.19815 1.83523 5.23153 1.80043C5.26563 1.76491 5.29226 1.72408 5.31143 1.67791C5.33061 1.63175 5.3402 1.58274 5.3402 1.53089C5.33949 1.462 5.32315 1.39879 5.29119 1.34126C5.25923 1.28374 5.2152 1.23757 5.15909 1.20277C5.10298 1.16797 5.03977 1.15057 4.96946 1.15057ZM7.01278 3.04794C6.82955 3.04723 6.67188 3.00213 6.53977 2.91264C6.40838 2.82315 6.30717 2.69354 6.23615 2.52379C6.16584 2.35405 6.13104 2.14986 6.13175 1.91122C6.13175 1.6733 6.1669 1.47053 6.23722 1.30291C6.30824 1.1353 6.40945 1.00781 6.54084 0.920455C6.67294 0.832386 6.83026 0.788352 7.01278 0.788352C7.19531 0.788352 7.35227 0.832386 7.48366 0.920455C7.61577 1.00852 7.71733 1.13636 7.78835 1.30398C7.85938 1.47088 7.89453 1.6733 7.89382 1.91122C7.89382 2.15057 7.85831 2.35511 7.78729 2.52486C7.71697 2.6946 7.61612 2.82422 7.48473 2.91371C7.35334 3.0032 7.19602 3.04794 7.01278 3.04794ZM7.01278 2.66548C7.13778 2.66548 7.23757 2.60263 7.31214 2.47692C7.38672 2.35121 7.42365 2.16264 7.42294 1.91122C7.42294 1.74574 7.40589 1.60795 7.3718 1.49787C7.33842 1.38778 7.29084 1.30504 7.22905 1.24964C7.16797 1.19425 7.09588 1.16655 7.01278 1.16655C6.88849 1.16655 6.78906 1.22869 6.71449 1.35298C6.63991 1.47727 6.60227 1.66335 6.60156 1.91122C6.60156 2.07884 6.61825 2.21875 6.65163 2.33097C6.68572 2.44247 6.73366 2.52628 6.79545 2.58239C6.85724 2.63778 6.92969 2.66548 7.01278 2.66548ZM9.41699 2.59091V2.47585C9.41699 2.38849 9.43546 2.30824 9.47239 2.23509C9.51003 2.16122 9.56436 2.10227 9.63539 2.05824C9.70712 2.01349 9.79448 1.99112 9.89746 1.99112C10.0019 1.99112 10.0896 2.01314 10.1606 2.05717C10.2323 2.10121 10.2863 2.16016 10.3225 2.23402C10.3595 2.30717 10.3779 2.38778 10.3779 2.47585V2.59091C10.3779 2.67827 10.3595 2.75888 10.3225 2.83274C10.2856 2.90589 10.2313 2.96449 10.1595 3.00852C10.0878 3.05327 10.0004 3.07564 9.89746 3.07564C9.79306 3.07564 9.70534 3.05327 9.63432 3.00852C9.5633 2.96449 9.50932 2.90589 9.47239 2.83274C9.43546 2.75888 9.41699 2.67827 9.41699 2.59091ZM9.72701 2.47585V2.59091C9.72701 2.64134 9.73908 2.68892 9.76323 2.73366C9.78809 2.77841 9.83283 2.80078 9.89746 2.80078C9.96209 2.80078 10.0061 2.77876 10.0296 2.73473C10.0537 2.6907 10.0658 2.64276 10.0658 2.59091V2.47585C10.0658 2.42401 10.0544 2.37571 10.0317 2.33097C10.009 2.28622 9.96422 2.26385 9.89746 2.26385C9.83354 2.26385 9.78915 2.28622 9.76429 2.33097C9.73944 2.37571 9.72701 2.42401 9.72701 2.47585ZM8.29732 1.34233V1.22727C8.29732 1.1392 8.31614 1.05859 8.35378 0.98544C8.39142 0.911577 8.44576 0.852628 8.51678 0.808594C8.58851 0.76456 8.67516 0.742543 8.77672 0.742543C8.88184 0.742543 8.9699 0.76456 9.04093 0.808594C9.11195 0.852628 9.16593 0.911577 9.20286 0.98544C9.23979 1.05859 9.25826 1.1392 9.25826 1.22727V1.34233C9.25826 1.4304 9.23944 1.51101 9.20179 1.58416C9.16486 1.65732 9.11053 1.71591 9.0388 1.75994C8.96777 1.80327 8.88042 1.82493 8.77672 1.82493C8.67303 1.82493 8.58532 1.80291 8.51358 1.75888C8.44256 1.71413 8.38858 1.65554 8.35165 1.5831C8.31543 1.50994 8.29732 1.42969 8.29732 1.34233ZM8.60946 1.22727V1.34233C8.60946 1.39418 8.62154 1.44212 8.64569 1.48615C8.67054 1.53018 8.71422 1.5522 8.77672 1.5522C8.84206 1.5522 8.88645 1.53018 8.90989 1.48615C8.93404 1.44212 8.94611 1.39418 8.94611 1.34233V1.22727C8.94611 1.17543 8.93475 1.12713 8.91202 1.08239C8.88929 1.03764 8.84419 1.01527 8.77672 1.01527C8.71351 1.01527 8.66983 1.038 8.64569 1.08345C8.62154 1.12891 8.60946 1.17685 8.60946 1.22727ZM8.43794 3L9.93794 0.818182H10.2171L8.71706 3H8.43794Z" fill="black"/>
<path d="M13.0142 17.0298C12.902 17.0291 12.7937 17.0103 12.6893 16.9734C12.5856 16.9364 12.4925 16.8764 12.4102 16.7933C12.3278 16.7102 12.2624 16.6001 12.2141 16.4631C12.1665 16.326 12.1428 16.1577 12.1428 15.9581C12.1435 15.7749 12.1644 15.6112 12.2056 15.467C12.2475 15.3221 12.3072 15.1992 12.3846 15.0984C12.4627 14.9975 12.5561 14.9208 12.6648 14.8683C12.7734 14.815 12.8952 14.7884 13.0302 14.7884C13.1758 14.7884 13.3043 14.8168 13.4158 14.8736C13.5273 14.9297 13.6168 15.006 13.6843 15.1026C13.7525 15.1992 13.7937 15.3075 13.8079 15.4276H13.353C13.3352 15.3516 13.2979 15.2919 13.2411 15.2486C13.1843 15.2053 13.114 15.1836 13.0302 15.1836C12.8881 15.1836 12.7802 15.2454 12.7063 15.369C12.6332 15.4925 12.5959 15.6605 12.5945 15.8729H12.6094C12.642 15.8082 12.6861 15.7532 12.7415 15.7077C12.7976 15.6616 12.8612 15.6264 12.9322 15.6023C13.0039 15.5774 13.0795 15.565 13.1591 15.565C13.2884 15.565 13.4034 15.5955 13.5043 15.6566C13.6051 15.717 13.6847 15.8001 13.7429 15.9059C13.8011 16.0117 13.8303 16.1328 13.8303 16.2692C13.8303 16.4169 13.7958 16.5483 13.7269 16.6634C13.6587 16.7784 13.5632 16.8686 13.4403 16.9339C13.3182 16.9986 13.1761 17.0305 13.0142 17.0298ZM13.0121 16.6676C13.0831 16.6676 13.1467 16.6506 13.2028 16.6165C13.2589 16.5824 13.3029 16.5362 13.3349 16.478C13.3668 16.4197 13.3828 16.3544 13.3828 16.282C13.3828 16.2095 13.3668 16.1445 13.3349 16.087C13.3036 16.0295 13.2603 15.9837 13.2049 15.9496C13.1495 15.9155 13.0863 15.8984 13.0153 15.8984C12.962 15.8984 12.9126 15.9084 12.8672 15.9283C12.8224 15.9482 12.783 15.9759 12.7489 16.0114C12.7156 16.0469 12.6893 16.0881 12.6701 16.1349C12.6509 16.1811 12.6413 16.2305 12.6413 16.283C12.6413 16.3533 12.6573 16.4176 12.6893 16.4759C12.7219 16.5341 12.766 16.5806 12.8214 16.6154C12.8775 16.6502 12.9411 16.6676 13.0121 16.6676ZM15.0128 17.0479C14.8295 17.0472 14.6719 17.0021 14.5398 16.9126C14.4084 16.8232 14.3072 16.6935 14.2362 16.5238C14.1658 16.354 14.131 16.1499 14.1317 15.9112C14.1317 15.6733 14.1669 15.4705 14.2372 15.3029C14.3082 15.1353 14.4094 15.0078 14.5408 14.9205C14.6729 14.8324 14.8303 14.7884 15.0128 14.7884C15.1953 14.7884 15.3523 14.8324 15.4837 14.9205C15.6158 15.0085 15.7173 15.1364 15.7884 15.304C15.8594 15.4709 15.8945 15.6733 15.8938 15.9112C15.8938 16.1506 15.8583 16.3551 15.7873 16.5249C15.717 16.6946 15.6161 16.8242 15.4847 16.9137C15.3533 17.0032 15.196 17.0479 15.0128 17.0479ZM15.0128 16.6655C15.1378 16.6655 15.2376 16.6026 15.3121 16.4769C15.3867 16.3512 15.4237 16.1626 15.4229 15.9112C15.4229 15.7457 15.4059 15.608 15.3718 15.4979C15.3384 15.3878 15.2908 15.305 15.229 15.2496C15.168 15.1942 15.0959 15.1665 15.0128 15.1665C14.8885 15.1665 14.7891 15.2287 14.7145 15.353C14.6399 15.4773 14.6023 15.6634 14.6016 15.9112C14.6016 16.0788 14.6183 16.2188 14.6516 16.331C14.6857 16.4425 14.7337 16.5263 14.7955 16.5824C14.8572 16.6378 14.9297 16.6655 15.0128 16.6655ZM17.417 16.5909V16.4759C17.417 16.3885 17.4355 16.3082 17.4724 16.2351C17.51 16.1612 17.5644 16.1023 17.6354 16.0582C17.7071 16.0135 17.7945 15.9911 17.8975 15.9911C18.0019 15.9911 18.0896 16.0131 18.1606 16.0572C18.2323 16.1012 18.2863 16.1602 18.3225 16.234C18.3595 16.3072 18.3779 16.3878 18.3779 16.4759V16.5909C18.3779 16.6783 18.3595 16.7589 18.3225 16.8327C18.2856 16.9059 18.2313 16.9645 18.1595 17.0085C18.0878 17.0533 18.0004 17.0756 17.8975 17.0756C17.7931 17.0756 17.7053 17.0533 17.6343 17.0085C17.5633 16.9645 17.5093 16.9059 17.4724 16.8327C17.4355 16.7589 17.417 16.6783 17.417 16.5909ZM17.727 16.4759V16.5909C17.727 16.6413 17.7391 16.6889 17.7632 16.7337C17.7881 16.7784 17.8328 16.8008 17.8975 16.8008C17.9621 16.8008 18.0061 16.7788 18.0296 16.7347C18.0537 16.6907 18.0658 16.6428 18.0658 16.5909V16.4759C18.0658 16.424 18.0544 16.3757 18.0317 16.331C18.009 16.2862 17.9642 16.2638 17.8975 16.2638C17.8335 16.2638 17.7892 16.2862 17.7643 16.331C17.7394 16.3757 17.727 16.424 17.727 16.4759ZM16.2973 15.3423V15.2273C16.2973 15.1392 16.3161 15.0586 16.3538 14.9854C16.3914 14.9116 16.4458 14.8526 16.5168 14.8086C16.5885 14.7646 16.6752 14.7425 16.7767 14.7425C16.8818 14.7425 16.9699 14.7646 17.0409 14.8086C17.1119 14.8526 17.1659 14.9116 17.2029 14.9854C17.2398 15.0586 17.2583 15.1392 17.2583 15.2273V15.3423C17.2583 15.4304 17.2394 15.511 17.2018 15.5842C17.1649 15.6573 17.1105 15.7159 17.0388 15.7599C16.9678 15.8033 16.8804 15.8249 16.7767 15.8249C16.673 15.8249 16.5853 15.8029 16.5136 15.7589C16.4426 15.7141 16.3886 15.6555 16.3517 15.5831C16.3154 15.5099 16.2973 15.4297 16.2973 15.3423ZM16.6095 15.2273V15.3423C16.6095 15.3942 16.6215 15.4421 16.6457 15.4862C16.6705 15.5302 16.7142 15.5522 16.7767 15.5522C16.8421 15.5522 16.8865 15.5302 16.9099 15.4862C16.934 15.4421 16.9461 15.3942 16.9461 15.3423V15.2273C16.9461 15.1754 16.9347 15.1271 16.912 15.0824C16.8893 15.0376 16.8442 15.0153 16.7767 15.0153C16.7135 15.0153 16.6698 15.038 16.6457 15.0835C16.6215 15.1289 16.6095 15.1768 16.6095 15.2273ZM16.4379 17L17.9379 14.8182H18.2171L16.7171 17H16.4379Z" fill="black"/>
<path d="M21.9737 29.0298C21.8232 29.0298 21.6889 29.0021 21.571 28.9467C21.4538 28.8913 21.3608 28.815 21.2919 28.7177C21.223 28.6204 21.1871 28.5089 21.1843 28.3832H21.6317C21.6367 28.4677 21.6722 28.5362 21.7383 28.5888C21.8043 28.6413 21.8828 28.6676 21.9737 28.6676C22.0462 28.6676 22.1101 28.6516 22.1655 28.6197C22.2216 28.587 22.2653 28.5419 22.2965 28.4844C22.3285 28.4261 22.3445 28.3594 22.3445 28.2841C22.3445 28.2074 22.3281 28.1399 22.2955 28.0817C22.2635 28.0234 22.2191 27.978 22.1623 27.9453C22.1055 27.9126 22.0405 27.896 21.9673 27.8952C21.9034 27.8952 21.8413 27.9084 21.7809 27.9347C21.7212 27.9609 21.6747 27.9968 21.6413 28.0423L21.2312 27.9688L21.3345 26.8182H22.6683V27.1953H21.7148L21.6584 27.7418H21.6712C21.7095 27.6879 21.7674 27.6431 21.8448 27.6076C21.9222 27.5721 22.0089 27.5543 22.1048 27.5543C22.2362 27.5543 22.3533 27.5852 22.4563 27.647C22.5593 27.7088 22.6406 27.7937 22.7003 27.9016C22.7599 28.0089 22.7894 28.1325 22.7887 28.2724C22.7894 28.4194 22.7553 28.5501 22.6864 28.6644C22.6183 28.7781 22.5227 28.8675 22.3999 28.9329C22.2777 28.9975 22.1357 29.0298 21.9737 29.0298ZM23.9659 29.0479C23.7827 29.0472 23.625 29.0021 23.4929 28.9126C23.3615 28.8232 23.2603 28.6935 23.1893 28.5238C23.119 28.354 23.0842 28.1499 23.0849 27.9112C23.0849 27.6733 23.12 27.4705 23.1903 27.3029C23.2614 27.1353 23.3626 27.0078 23.494 26.9205C23.6261 26.8324 23.7834 26.7884 23.9659 26.7884C24.1484 26.7884 24.3054 26.8324 24.4368 26.9205C24.5689 27.0085 24.6705 27.1364 24.7415 27.304C24.8125 27.4709 24.8477 27.6733 24.8469 27.9112C24.8469 28.1506 24.8114 28.3551 24.7404 28.5249C24.6701 28.6946 24.5692 28.8242 24.4379 28.9137C24.3065 29.0032 24.1491 29.0479 23.9659 29.0479ZM23.9659 28.6655C24.0909 28.6655 24.1907 28.6026 24.2653 28.4769C24.3398 28.3512 24.3768 28.1626 24.3761 27.9112C24.3761 27.7457 24.359 27.608 24.3249 27.4979C24.2915 27.3878 24.244 27.305 24.1822 27.2496C24.1211 27.1942 24.049 27.1665 23.9659 27.1665C23.8416 27.1665 23.7422 27.2287 23.6676 27.353C23.593 27.4773 23.5554 27.6634 23.5547 27.9112C23.5547 28.0788 23.5714 28.2188 23.6048 28.331C23.6388 28.4425 23.6868 28.5263 23.7486 28.5824C23.8104 28.6378 23.8828 28.6655 23.9659 28.6655ZM26.3701 28.5909V28.4759C26.3701 28.3885 26.3886 28.3082 26.4255 28.2351C26.4632 28.1612 26.5175 28.1023 26.5885 28.0582C26.6602 28.0135 26.7476 27.9911 26.8506 27.9911C26.955 27.9911 27.0427 28.0131 27.1137 28.0572C27.1855 28.1012 27.2394 28.1602 27.2757 28.234C27.3126 28.3072 27.3311 28.3878 27.3311 28.4759V28.5909C27.3311 28.6783 27.3126 28.7589 27.2757 28.8327C27.2387 28.9059 27.1844 28.9645 27.1127 29.0085C27.0409 29.0533 26.9536 29.0756 26.8506 29.0756C26.7462 29.0756 26.6585 29.0533 26.5874 29.0085C26.5164 28.9645 26.4624 28.9059 26.4255 28.8327C26.3886 28.7589 26.3701 28.6783 26.3701 28.5909ZM26.6801 28.4759V28.5909C26.6801 28.6413 26.6922 28.6889 26.7164 28.7337C26.7412 28.7784 26.786 28.8008 26.8506 28.8008C26.9152 28.8008 26.9593 28.7788 26.9827 28.7347C27.0068 28.6907 27.0189 28.6428 27.0189 28.5909V28.4759C27.0189 28.424 27.0075 28.3757 26.9848 28.331C26.9621 28.2862 26.9173 28.2638 26.8506 28.2638C26.7867 28.2638 26.7423 28.2862 26.7174 28.331C26.6926 28.3757 26.6801 28.424 26.6801 28.4759ZM25.2504 27.3423V27.2273C25.2504 27.1392 25.2693 27.0586 25.3069 26.9854C25.3445 26.9116 25.3989 26.8526 25.4699 26.8086C25.5416 26.7646 25.6283 26.7425 25.7298 26.7425C25.835 26.7425 25.923 26.7646 25.9941 26.8086C26.0651 26.8526 26.1191 26.9116 26.156 26.9854C26.1929 27.0586 26.2114 27.1392 26.2114 27.2273V27.3423C26.2114 27.4304 26.1926 27.511 26.1549 27.5842C26.118 27.6573 26.0637 27.7159 25.9919 27.7599C25.9209 27.8033 25.8335 27.8249 25.7298 27.8249C25.6262 27.8249 25.5384 27.8029 25.4667 27.7589C25.3957 27.7141 25.3417 27.6555 25.3048 27.5831C25.2686 27.5099 25.2504 27.4297 25.2504 27.3423ZM25.5626 27.2273V27.3423C25.5626 27.3942 25.5747 27.4421 25.5988 27.4862C25.6237 27.5302 25.6673 27.5522 25.7298 27.5522C25.7952 27.5522 25.8396 27.5302 25.863 27.4862C25.8872 27.4421 25.8992 27.3942 25.8992 27.3423V27.2273C25.8992 27.1754 25.8879 27.1271 25.8651 27.0824C25.8424 27.0376 25.7973 27.0153 25.7298 27.0153C25.6666 27.0153 25.623 27.038 25.5988 27.0835C25.5747 27.1289 25.5626 27.1768 25.5626 27.2273ZM25.3911 29L26.8911 26.8182H27.1702L25.6702 29H25.3911Z" fill="black"/>
<path d="M29.9908 13.0298C29.8267 13.0298 29.6808 13.0032 29.5529 12.9499C29.4258 12.896 29.326 12.8224 29.2536 12.7294C29.1811 12.6364 29.1449 12.5309 29.1449 12.413C29.1449 12.3221 29.1655 12.2386 29.2067 12.1626C29.2486 12.0859 29.3054 12.0224 29.3771 11.9719C29.4489 11.9208 29.5291 11.8881 29.6179 11.8739V11.859C29.5014 11.8356 29.407 11.7791 29.3345 11.6896C29.2621 11.5994 29.2259 11.4947 29.2259 11.3754C29.2259 11.2624 29.2589 11.1619 29.3249 11.0739C29.391 10.9851 29.4815 10.9155 29.5966 10.8651C29.7124 10.8139 29.8438 10.7884 29.9908 10.7884C30.1378 10.7884 30.2688 10.8139 30.3839 10.8651C30.4996 10.9162 30.5906 10.9862 30.6566 11.0749C30.7227 11.163 30.756 11.2631 30.7567 11.3754C30.756 11.4954 30.7191 11.6001 30.646 11.6896C30.5728 11.7791 30.479 11.8356 30.3647 11.859V11.8739C30.4521 11.8881 30.5313 11.9208 30.6023 11.9719C30.674 12.0224 30.7308 12.0859 30.7727 12.1626C30.8153 12.2386 30.837 12.3221 30.8377 12.413C30.837 12.5309 30.8004 12.6364 30.728 12.7294C30.6555 12.8224 30.5554 12.896 30.4276 12.9499C30.3004 13.0032 30.1548 13.0298 29.9908 13.0298ZM29.9908 12.6911C30.0639 12.6911 30.1278 12.6779 30.1825 12.6516C30.2372 12.6246 30.2798 12.5877 30.3104 12.5408C30.3416 12.4933 30.3572 12.4386 30.3572 12.3768C30.3572 12.3136 30.3413 12.2578 30.3093 12.2095C30.2773 12.1605 30.234 12.1222 30.1793 12.0945C30.1246 12.0661 30.0618 12.0518 29.9908 12.0518C29.9205 12.0518 29.8576 12.0661 29.8022 12.0945C29.7468 12.1222 29.7031 12.1605 29.6712 12.2095C29.6399 12.2578 29.6243 12.3136 29.6243 12.3768C29.6243 12.4386 29.6396 12.4933 29.6701 12.5408C29.7006 12.5877 29.7436 12.6246 29.799 12.6516C29.8544 12.6779 29.9183 12.6911 29.9908 12.6911ZM29.9908 11.7163C30.0518 11.7163 30.1062 11.7038 30.1538 11.679C30.2013 11.6541 30.2386 11.6197 30.2656 11.5756C30.2926 11.5316 30.3061 11.4808 30.3061 11.4233C30.3061 11.3665 30.2926 11.3168 30.2656 11.2741C30.2386 11.2308 30.2017 11.1971 30.1548 11.1729C30.108 11.1481 30.0533 11.1357 29.9908 11.1357C29.929 11.1357 29.8743 11.1481 29.8267 11.1729C29.7791 11.1971 29.7418 11.2308 29.7148 11.2741C29.6886 11.3168 29.6754 11.3665 29.6754 11.4233C29.6754 11.4808 29.6889 11.5316 29.7159 11.5756C29.7429 11.6197 29.7802 11.6541 29.8278 11.679C29.8754 11.7038 29.9297 11.7163 29.9908 11.7163ZM32.0157 13.0479C31.8325 13.0472 31.6748 13.0021 31.5427 12.9126C31.4113 12.8232 31.3101 12.6935 31.2391 12.5238C31.1688 12.354 31.134 12.1499 31.1347 11.9112C31.1347 11.6733 31.1698 11.4705 31.2401 11.3029C31.3112 11.1353 31.4124 11.0078 31.5438 10.9205C31.6759 10.8324 31.8332 10.7884 32.0157 10.7884C32.1982 10.7884 32.3552 10.8324 32.4866 10.9205C32.6187 11.0085 32.7203 11.1364 32.7913 11.304C32.8623 11.4709 32.8975 11.6733 32.8968 11.9112C32.8968 12.1506 32.8612 12.3551 32.7902 12.5249C32.7199 12.6946 32.6191 12.8242 32.4877 12.9137C32.3563 13.0032 32.199 13.0479 32.0157 13.0479ZM32.0157 12.6655C32.1407 12.6655 32.2405 12.6026 32.3151 12.4769C32.3896 12.3512 32.4266 12.1626 32.4259 11.9112C32.4259 11.7457 32.4088 11.608 32.3747 11.4979C32.3414 11.3878 32.2938 11.305 32.232 11.2496C32.1709 11.1942 32.0988 11.1665 32.0157 11.1665C31.8914 11.1665 31.792 11.2287 31.7174 11.353C31.6428 11.4773 31.6052 11.6634 31.6045 11.9112C31.6045 12.0788 31.6212 12.2188 31.6546 12.331C31.6887 12.4425 31.7366 12.5263 31.7984 12.5824C31.8602 12.6378 31.9326 12.6655 32.0157 12.6655ZM34.4199 12.5909V12.4759C34.4199 12.3885 34.4384 12.3082 34.4753 12.2351C34.513 12.1612 34.5673 12.1023 34.6383 12.0582C34.71 12.0135 34.7974 11.9911 34.9004 11.9911C35.0048 11.9911 35.0925 12.0131 35.1635 12.0572C35.2353 12.1012 35.2892 12.1602 35.3255 12.234C35.3624 12.3072 35.3809 12.3878 35.3809 12.4759V12.5909C35.3809 12.6783 35.3624 12.7589 35.3255 12.8327C35.2885 12.9059 35.2342 12.9645 35.1625 13.0085C35.0907 13.0533 35.0034 13.0756 34.9004 13.0756C34.796 13.0756 34.7083 13.0533 34.6373 13.0085C34.5662 12.9645 34.5123 12.9059 34.4753 12.8327C34.4384 12.7589 34.4199 12.6783 34.4199 12.5909ZM34.7299 12.4759V12.5909C34.7299 12.6413 34.742 12.6889 34.7662 12.7337C34.791 12.7784 34.8358 12.8008 34.9004 12.8008C34.965 12.8008 35.0091 12.7788 35.0325 12.7347C35.0566 12.6907 35.0687 12.6428 35.0687 12.5909V12.4759C35.0687 12.424 35.0574 12.3757 35.0346 12.331C35.0119 12.2862 34.9672 12.2638 34.9004 12.2638C34.8365 12.2638 34.7921 12.2862 34.7672 12.331C34.7424 12.3757 34.7299 12.424 34.7299 12.4759ZM33.3002 11.3423V11.2273C33.3002 11.1392 33.3191 11.0586 33.3567 10.9854C33.3944 10.9116 33.4487 10.8526 33.5197 10.8086C33.5914 10.7646 33.6781 10.7425 33.7797 10.7425C33.8848 10.7425 33.9728 10.7646 34.0439 10.8086C34.1149 10.8526 34.1689 10.9116 34.2058 10.9854C34.2427 11.0586 34.2612 11.1392 34.2612 11.2273V11.3423C34.2612 11.4304 34.2424 11.511 34.2047 11.5842C34.1678 11.6573 34.1135 11.7159 34.0417 11.7599C33.9707 11.8033 33.8833 11.8249 33.7797 11.8249C33.676 11.8249 33.5882 11.8029 33.5165 11.7589C33.4455 11.7141 33.3915 11.6555 33.3546 11.5831C33.3184 11.5099 33.3002 11.4297 33.3002 11.3423ZM33.6124 11.2273V11.3423C33.6124 11.3942 33.6245 11.4421 33.6486 11.4862C33.6735 11.5302 33.7172 11.5522 33.7797 11.5522C33.845 11.5522 33.8894 11.5302 33.9128 11.4862C33.937 11.4421 33.949 11.3942 33.949 11.3423V11.2273C33.949 11.1754 33.9377 11.1271 33.915 11.0824C33.8922 11.0376 33.8471 11.0153 33.7797 11.0153C33.7164 11.0153 33.6728 11.038 33.6486 11.0835C33.6245 11.1289 33.6124 11.1768 33.6124 11.2273ZM33.4409 13L34.9409 10.8182H35.22L33.72 13H33.4409Z" fill="black"/>
<path d="M38.1768 35V34.6676L38.9535 33.9485C39.0195 33.8846 39.0749 33.8271 39.1197 33.7759C39.1651 33.7248 39.1996 33.6747 39.223 33.6257C39.2464 33.576 39.2582 33.5224 39.2582 33.4648C39.2582 33.4009 39.2436 33.3459 39.2145 33.2997C39.1854 33.2528 39.1456 33.217 39.0952 33.1921C39.0447 33.1665 38.9876 33.1538 38.9237 33.1538C38.8569 33.1538 38.7987 33.1673 38.7489 33.1942C38.6992 33.2212 38.6609 33.2599 38.6339 33.3104C38.6069 33.3608 38.5934 33.4208 38.5934 33.4904H38.1555C38.1555 33.3477 38.1879 33.2237 38.2525 33.1186C38.3171 33.0135 38.4077 32.9322 38.5241 32.8746C38.6406 32.8171 38.7749 32.7884 38.9268 32.7884C39.0831 32.7884 39.2191 32.8161 39.3349 32.8714C39.4513 32.9261 39.5419 33.0021 39.6065 33.0994C39.6712 33.1967 39.7035 33.3082 39.7035 33.4339C39.7035 33.5163 39.6871 33.5977 39.6545 33.6779C39.6225 33.7582 39.5653 33.8473 39.483 33.9453C39.4006 34.0426 39.2844 34.1594 39.1346 34.2958L38.8161 34.608V34.6229H39.7322V35H38.1768ZM40.922 35.0479C40.7387 35.0472 40.5811 35.0021 40.449 34.9126C40.3176 34.8232 40.2164 34.6935 40.1453 34.5238C40.075 34.354 40.0402 34.1499 40.0409 33.9112C40.0409 33.6733 40.0761 33.4705 40.1464 33.3029C40.2174 33.1353 40.3186 33.0078 40.45 32.9205C40.5821 32.8324 40.7394 32.7884 40.922 32.7884C41.1045 32.7884 41.2615 32.8324 41.3928 32.9205C41.5249 33.0085 41.6265 33.1364 41.6975 33.304C41.7686 33.4709 41.8037 33.6733 41.803 33.9112C41.803 34.1506 41.7675 34.3551 41.6965 34.5249C41.6262 34.6946 41.5253 34.8242 41.3939 34.9137C41.2625 35.0032 41.1052 35.0479 40.922 35.0479ZM40.922 34.6655C41.047 34.6655 41.1468 34.6026 41.2213 34.4769C41.2959 34.3512 41.3328 34.1626 41.3321 33.9112C41.3321 33.7457 41.3151 33.608 41.281 33.4979C41.2476 33.3878 41.2 33.305 41.1382 33.2496C41.0771 33.1942 41.0051 33.1665 40.922 33.1665C40.7977 33.1665 40.6982 33.2287 40.6237 33.353C40.5491 33.4773 40.5115 33.6634 40.5107 33.9112C40.5107 34.0788 40.5274 34.2188 40.5608 34.331C40.5949 34.4425 40.6428 34.5263 40.7046 34.5824C40.7664 34.6378 40.8389 34.6655 40.922 34.6655ZM43.3262 34.5909V34.4759C43.3262 34.3885 43.3446 34.3082 43.3816 34.2351C43.4192 34.1612 43.4735 34.1023 43.5446 34.0582C43.6163 34.0135 43.7037 33.9911 43.8066 33.9911C43.911 33.9911 43.9988 34.0131 44.0698 34.0572C44.1415 34.1012 44.1955 34.1602 44.2317 34.234C44.2686 34.3072 44.2871 34.3878 44.2871 34.4759V34.5909C44.2871 34.6783 44.2686 34.7589 44.2317 34.8327C44.1948 34.9059 44.1404 34.9645 44.0687 35.0085C43.997 35.0533 43.9096 35.0756 43.8066 35.0756C43.7022 35.0756 43.6145 35.0533 43.5435 35.0085C43.4725 34.9645 43.4185 34.9059 43.3816 34.8327C43.3446 34.7589 43.3262 34.6783 43.3262 34.5909ZM43.6362 34.4759V34.5909C43.6362 34.6413 43.6483 34.6889 43.6724 34.7337C43.6973 34.7784 43.742 34.8008 43.8066 34.8008C43.8713 34.8008 43.9153 34.7788 43.9387 34.7347C43.9629 34.6907 43.975 34.6428 43.975 34.5909V34.4759C43.975 34.424 43.9636 34.3757 43.9409 34.331C43.9181 34.2862 43.8734 34.2638 43.8066 34.2638C43.7427 34.2638 43.6983 34.2862 43.6735 34.331C43.6486 34.3757 43.6362 34.424 43.6362 34.4759ZM42.2065 33.3423V33.2273C42.2065 33.1392 42.2253 33.0586 42.263 32.9854C42.3006 32.9116 42.3549 32.8526 42.426 32.8086C42.4977 32.7646 42.5843 32.7425 42.6859 32.7425C42.791 32.7425 42.8791 32.7646 42.9501 32.8086C43.0211 32.8526 43.0751 32.9116 43.112 32.9854C43.149 33.0586 43.1674 33.1392 43.1674 33.2273V33.3423C43.1674 33.4304 43.1486 33.511 43.111 33.5842C43.074 33.6573 43.0197 33.7159 42.948 33.7599C42.877 33.8033 42.7896 33.8249 42.6859 33.8249C42.5822 33.8249 42.4945 33.8029 42.4228 33.7589C42.3517 33.7141 42.2978 33.6555 42.2608 33.5831C42.2246 33.5099 42.2065 33.4297 42.2065 33.3423ZM42.5186 33.2273V33.3423C42.5186 33.3942 42.5307 33.4421 42.5549 33.4862C42.5797 33.5302 42.6234 33.5522 42.6859 33.5522C42.7512 33.5522 42.7956 33.5302 42.8191 33.4862C42.8432 33.4421 42.8553 33.3942 42.8553 33.3423V33.2273C42.8553 33.1754 42.8439 33.1271 42.8212 33.0824C42.7985 33.0376 42.7534 33.0153 42.6859 33.0153C42.6227 33.0153 42.579 33.038 42.5549 33.0835C42.5307 33.1289 42.5186 33.1768 42.5186 33.2273ZM42.3471 35L43.8471 32.8182H44.1262L42.6262 35H42.3471Z" fill="black"/>
<path d="M46.2631 20L47.1676 18.2102V18.1953H46.114V17.8182H47.6449V18.2006L46.7393 20H46.2631ZM48.7696 20.0479C48.5864 20.0472 48.4287 20.0021 48.2966 19.9126C48.1652 19.8232 48.064 19.6935 47.993 19.5238C47.9227 19.354 47.8879 19.1499 47.8886 18.9112C47.8886 18.6733 47.9237 18.4705 47.9941 18.3029C48.0651 18.1353 48.1663 18.0078 48.2977 17.9205C48.4298 17.8324 48.5871 17.7884 48.7696 17.7884C48.9521 17.7884 49.1091 17.8324 49.2405 17.9205C49.3726 18.0085 49.4742 18.1364 49.5452 18.304C49.6162 18.4709 49.6514 18.6733 49.6507 18.9112C49.6507 19.1506 49.6151 19.3551 49.5441 19.5249C49.4738 19.6946 49.373 19.8242 49.2416 19.9137C49.1102 20.0032 48.9529 20.0479 48.7696 20.0479ZM48.7696 19.6655C48.8946 19.6655 48.9944 19.6026 49.069 19.4769C49.1436 19.3512 49.1805 19.1626 49.1798 18.9112C49.1798 18.7457 49.1627 18.608 49.1286 18.4979C49.0953 18.3878 49.0477 18.305 48.9859 18.2496C48.9248 18.1942 48.8527 18.1665 48.7696 18.1665C48.6453 18.1665 48.5459 18.2287 48.4713 18.353C48.3968 18.4773 48.3591 18.6634 48.3584 18.9112C48.3584 19.0788 48.3751 19.2188 48.4085 19.331C48.4426 19.4425 48.4905 19.5263 48.5523 19.5824C48.6141 19.6378 48.6865 19.6655 48.7696 19.6655ZM51.1738 19.5909V19.4759C51.1738 19.3885 51.1923 19.3082 51.2292 19.2351C51.2669 19.1612 51.3212 19.1023 51.3922 19.0582C51.464 19.0135 51.5513 18.9911 51.6543 18.9911C51.7587 18.9911 51.8464 19.0131 51.9174 19.0572C51.9892 19.1012 52.0431 19.1602 52.0794 19.234C52.1163 19.3072 52.1348 19.3878 52.1348 19.4759V19.5909C52.1348 19.6783 52.1163 19.7589 52.0794 19.8327C52.0424 19.9059 51.9881 19.9645 51.9164 20.0085C51.8446 20.0533 51.7573 20.0756 51.6543 20.0756C51.5499 20.0756 51.4622 20.0533 51.3912 20.0085C51.3201 19.9645 51.2662 19.9059 51.2292 19.8327C51.1923 19.7589 51.1738 19.6783 51.1738 19.5909ZM51.4838 19.4759V19.5909C51.4838 19.6413 51.4959 19.6889 51.5201 19.7337C51.5449 19.7784 51.5897 19.8008 51.6543 19.8008C51.7189 19.8008 51.763 19.7788 51.7864 19.7347C51.8105 19.6907 51.8226 19.6428 51.8226 19.5909V19.4759C51.8226 19.424 51.8113 19.3757 51.7885 19.331C51.7658 19.2862 51.7211 19.2638 51.6543 19.2638C51.5904 19.2638 51.546 19.2862 51.5211 19.331C51.4963 19.3757 51.4838 19.424 51.4838 19.4759ZM50.0542 18.3423V18.2273C50.0542 18.1392 50.073 18.0586 50.1106 17.9854C50.1483 17.9116 50.2026 17.8526 50.2736 17.8086C50.3453 17.7646 50.432 17.7425 50.5336 17.7425C50.6387 17.7425 50.7267 17.7646 50.7978 17.8086C50.8688 17.8526 50.9228 17.9116 50.9597 17.9854C50.9966 18.0586 51.0151 18.1392 51.0151 18.2273V18.3423C51.0151 18.4304 50.9963 18.511 50.9586 18.5842C50.9217 18.6573 50.8674 18.7159 50.7956 18.7599C50.7246 18.8033 50.6373 18.8249 50.5336 18.8249C50.4299 18.8249 50.3422 18.8029 50.2704 18.7589C50.1994 18.7141 50.1454 18.6555 50.1085 18.5831C50.0723 18.5099 50.0542 18.4297 50.0542 18.3423ZM50.3663 18.2273V18.3423C50.3663 18.3942 50.3784 18.4421 50.4025 18.4862C50.4274 18.5302 50.4711 18.5522 50.5336 18.5522C50.5989 18.5522 50.6433 18.5302 50.6667 18.4862C50.6909 18.4421 50.7029 18.3942 50.7029 18.3423V18.2273C50.7029 18.1754 50.6916 18.1271 50.6689 18.0824C50.6461 18.0376 50.601 18.0153 50.5336 18.0153C50.4703 18.0153 50.4267 18.038 50.4025 18.0835C50.3784 18.1289 50.3663 18.1768 50.3663 18.2273ZM50.1948 20L51.6948 17.8182H51.9739L50.4739 20H50.1948Z" fill="black"/>
<path d="M55.9737 40.0298C55.8232 40.0298 55.6889 40.0021 55.571 39.9467C55.4538 39.8913 55.3608 39.815 55.2919 39.7177C55.223 39.6204 55.1871 39.5089 55.1843 39.3832H55.6317C55.6367 39.4677 55.6722 39.5362 55.7383 39.5888C55.8043 39.6413 55.8828 39.6676 55.9737 39.6676C56.0462 39.6676 56.1101 39.6516 56.1655 39.6197C56.2216 39.587 56.2653 39.5419 56.2965 39.4844C56.3285 39.4261 56.3445 39.3594 56.3445 39.2841C56.3445 39.2074 56.3281 39.1399 56.2955 39.0817C56.2635 39.0234 56.2191 38.978 56.1623 38.9453C56.1055 38.9126 56.0405 38.896 55.9673 38.8952C55.9034 38.8952 55.8413 38.9084 55.7809 38.9347C55.7212 38.9609 55.6747 38.9968 55.6413 39.0423L55.2312 38.9688L55.3345 37.8182H56.6683V38.1953H55.7148L55.6584 38.7418H55.6712C55.7095 38.6879 55.7674 38.6431 55.8448 38.6076C55.9222 38.5721 56.0089 38.5543 56.1048 38.5543C56.2362 38.5543 56.3533 38.5852 56.4563 38.647C56.5593 38.7088 56.6406 38.7937 56.7003 38.9016C56.7599 39.0089 56.7894 39.1325 56.7887 39.2724C56.7894 39.4194 56.7553 39.5501 56.6864 39.6644C56.6183 39.7781 56.5227 39.8675 56.3999 39.9329C56.2777 39.9975 56.1357 40.0298 55.9737 40.0298ZM57.9659 40.0479C57.7827 40.0472 57.625 40.0021 57.4929 39.9126C57.3615 39.8232 57.2603 39.6935 57.1893 39.5238C57.119 39.354 57.0842 39.1499 57.0849 38.9112C57.0849 38.6733 57.12 38.4705 57.1903 38.3029C57.2614 38.1353 57.3626 38.0078 57.494 37.9205C57.6261 37.8324 57.7834 37.7884 57.9659 37.7884C58.1484 37.7884 58.3054 37.8324 58.4368 37.9205C58.5689 38.0085 58.6705 38.1364 58.7415 38.304C58.8125 38.4709 58.8477 38.6733 58.8469 38.9112C58.8469 39.1506 58.8114 39.3551 58.7404 39.5249C58.6701 39.6946 58.5692 39.8242 58.4379 39.9137C58.3065 40.0032 58.1491 40.0479 57.9659 40.0479ZM57.9659 39.6655C58.0909 39.6655 58.1907 39.6026 58.2653 39.4769C58.3398 39.3512 58.3768 39.1626 58.3761 38.9112C58.3761 38.7457 58.359 38.608 58.3249 38.4979C58.2915 38.3878 58.244 38.305 58.1822 38.2496C58.1211 38.1942 58.049 38.1665 57.9659 38.1665C57.8416 38.1665 57.7422 38.2287 57.6676 38.353C57.593 38.4773 57.5554 38.6634 57.5547 38.9112C57.5547 39.0788 57.5714 39.2188 57.6048 39.331C57.6388 39.4425 57.6868 39.5263 57.7486 39.5824C57.8104 39.6378 57.8828 39.6655 57.9659 39.6655ZM60.3701 39.5909V39.4759C60.3701 39.3885 60.3886 39.3082 60.4255 39.2351C60.4632 39.1612 60.5175 39.1023 60.5885 39.0582C60.6602 39.0135 60.7476 38.9911 60.8506 38.9911C60.955 38.9911 61.0427 39.0131 61.1137 39.0572C61.1855 39.1012 61.2394 39.1602 61.2757 39.234C61.3126 39.3072 61.3311 39.3878 61.3311 39.4759V39.5909C61.3311 39.6783 61.3126 39.7589 61.2757 39.8327C61.2387 39.9059 61.1844 39.9645 61.1127 40.0085C61.0409 40.0533 60.9536 40.0756 60.8506 40.0756C60.7462 40.0756 60.6585 40.0533 60.5874 40.0085C60.5164 39.9645 60.4624 39.9059 60.4255 39.8327C60.3886 39.7589 60.3701 39.6783 60.3701 39.5909ZM60.6801 39.4759V39.5909C60.6801 39.6413 60.6922 39.6889 60.7164 39.7337C60.7412 39.7784 60.786 39.8008 60.8506 39.8008C60.9152 39.8008 60.9593 39.7788 60.9827 39.7347C61.0068 39.6907 61.0189 39.6428 61.0189 39.5909V39.4759C61.0189 39.424 61.0075 39.3757 60.9848 39.331C60.9621 39.2862 60.9173 39.2638 60.8506 39.2638C60.7867 39.2638 60.7423 39.2862 60.7174 39.331C60.6926 39.3757 60.6801 39.424 60.6801 39.4759ZM59.2504 38.3423V38.2273C59.2504 38.1392 59.2693 38.0586 59.3069 37.9854C59.3445 37.9116 59.3989 37.8526 59.4699 37.8086C59.5416 37.7646 59.6283 37.7425 59.7298 37.7425C59.835 37.7425 59.923 37.7646 59.9941 37.8086C60.0651 37.8526 60.1191 37.9116 60.156 37.9854C60.1929 38.0586 60.2114 38.1392 60.2114 38.2273V38.3423C60.2114 38.4304 60.1926 38.511 60.1549 38.5842C60.118 38.6573 60.0637 38.7159 59.9919 38.7599C59.9209 38.8033 59.8335 38.8249 59.7298 38.8249C59.6262 38.8249 59.5384 38.8029 59.4667 38.7589C59.3957 38.7141 59.3417 38.6555 59.3048 38.5831C59.2686 38.5099 59.2504 38.4297 59.2504 38.3423ZM59.5626 38.2273V38.3423C59.5626 38.3942 59.5747 38.4421 59.5988 38.4862C59.6237 38.5302 59.6673 38.5522 59.7298 38.5522C59.7952 38.5522 59.8396 38.5302 59.863 38.4862C59.8872 38.4421 59.8992 38.3942 59.8992 38.3423V38.2273C59.8992 38.1754 59.8879 38.1271 59.8651 38.0824C59.8424 38.0376 59.7973 38.0153 59.7298 38.0153C59.6666 38.0153 59.623 38.038 59.5988 38.0835C59.5747 38.1289 59.5626 38.1768 59.5626 38.2273ZM59.3911 40L60.8911 37.8182H61.1702L59.6702 40H59.3911Z" fill="black"/>
</g>
<defs>
<filter id="filter0_d_1_89" x="0" y="0" width="69" height="87" filterUnits="userSpaceOnUse" color-interpolation-filters="sRGB">
<feFlood flood-opacity="0" result="BackgroundImageFix"/>
<feColorMatrix in="SourceAlpha" type="matrix" values="0 0 0 0 0 0 0 0 0 0 0 0 0 0 0 0 0 0 127 0" result="hardAlpha"/>
<feOffset dy="4"/>
<feGaussianBlur stdDeviation="2"/>
<feComposite in2="hardAlpha" operator="out"/>
<feColorMatrix type="matrix" values="0 0 0 0 0 0 0 0 0 0 0 0 0 0 0 0 0 0 0.25 0"/>
<feBlend mode="normal" in2="BackgroundImageFix" result="effect1_dropShadow_1_89"/>
<feBlend mode="normal" in="SourceGraphic" in2="effect1_dropShadow_1_89" result="shape"/>
</filter>
</defs>
</svg>
